<!DOCTYPE svg PUBLIC "-//W3C//DTD SVG 1.1//EN" "http://www.w3.org/Graphics/SVG/1.1/DTD/svg11.dtd">
<!-- Uploaded to: SVG Repo, www.svgrepo.com, Transformed by: SVG Repo Mixer Tools -->
<svg width="800px" height="800px" viewBox="-0.24 -0.24 24.48 24.48" xmlns="http://www.w3.org/2000/svg" fill="#ffffff" stroke="#ffffff" transform="rotate(0)" stroke-width="0.00024000000000000003">
<g id="SVGRepo_bgCarrier" stroke-width="0"/>
<g id="SVGRepo_tracerCarrier" stroke-linecap="round" stroke-linejoin="round" stroke="#CCCCCC" stroke-width="0.096"/>
<g id="SVGRepo_iconCarrier">
<path d="M14.5 7l.9 3.6 3.6.9-3.6.9-.9 3.6-.9-3.6-3.6-.9 3.6-.9zm-1.725 2.775L5.877 11.5l6.898 1.725 1.725 6.898 1.725-6.898 6.898-1.725-6.898-1.725L14.5 2.877zM6 4l-.5-4L5 4l-4 .5L5 5l.5 4L6 5l4-.5zm1 14l-.5-4-.5 4-4 .5 4 .5.5 4 .5-4 4-.5z"/>
<path fill="none" d="M0 0h24v24H0z"/>
</g>
</svg>